<?xml version="1.0" encoding="UTF-8" standalone="no"?>
<!-- Created with Inkscape (http://www.inkscape.org/) -->

<svg
   width="135.38197mm"
   height="135.38197mm"
   viewBox="0 0 135.38197 135.38197"
   version="1.1"
   id="svg1"
   xml:space="preserve"
   xmlns="http://www.w3.org/2000/svg"
   xmlns:svg="http://www.w3.org/2000/svg"><defs
     id="defs1" /><path
     style="display:inline;fill:#0076b4;fill-opacity:1"
     d="m 15.70115,135.14118 c -3.99802,-0.58902 -7.15547,-2.21364 -10.21681,-5.25693 -1.82159,-1.81085 -2.48753,-2.7006 -3.37208,-4.50542 -2.21777,-4.52508 -2.03098,0.77989 -2.03098,-57.679166 0,-58.459058 -0.18679,-53.154084 2.03098,-57.679161 1.55749,-3.177869 4.71303,-6.333406 7.8909,-7.890901 4.52507,-2.217769 -0.7799,-2.030973 57.67916,-2.030973 58.45906,0 53.15409,-0.186796 57.67916,2.030973 1.79602,0.880239 2.70612,1.559383 4.51882,3.372086 1.8127,1.812704 2.49185,2.722801 3.37209,4.518815 2.21777,4.525077 2.03097,-0.779897 2.03097,57.679161 v 51.990626 l -0.60938,2.10474 c -0.98262,3.39391 -2.25811,5.54027 -4.80707,8.08922 -2.49459,2.49459 -4.60353,3.76822 -7.94933,4.80077 l -1.98005,0.61106 -51.32917,0.0388 c -28.35739,0.0214 -52.0354,-0.0652 -52.90721,-0.1937 z m 29.16964,-25.52112 c 1.43876,-1.00774 1.38028,0.17472 1.38028,-27.910496 0,-28.787777 0.0914,-27.287931 -1.71408,-28.144659 -1.26383,-0.599728 -13.5344,-0.618071 -14.68716,-0.02196 -1.70059,0.87941 -1.59136,-1.057916 -1.58105,28.040069 0.008,21.459596 0.0757,26.585216 0.35985,27.097936 0.70098,1.26472 1.13786,1.33266 8.63388,1.34267 5.94251,0.008 7.10913,-0.0539 7.60828,-0.40356 z m 25.82904,0.11169 c 1.47421,-0.67169 1.48041,-0.74108 1.48041,-16.563606 0,-13.70229 0.0306,-14.65594 0.53305,-16.62876 0.70634,-2.77324 1.62295,-4.59064 3.06213,-6.07145 1.52043,-1.5644 3.17763,-2.29235 5.57145,-2.44733 4.6844,-0.30327 7.61242,1.70548 9.15745,6.28242 0.57087,1.69111 0.5875,2.10512 0.72127,17.95868 l 0.13694,16.227666 0.86407,0.77181 0.86407,0.77181 h 7.5568 7.5568 l 0.7734,-0.77339 0.7734,-0.7734 -0.008,-16.490656 c -0.009,-17.52039 -0.15491,-20.29212 -1.30888,-24.82504 -0.74497,-2.9263 -2.52103,-6.607526 -4.14311,-8.587387 -3.55176,-4.335184 -9.62656,-6.529693 -17.01386,-6.146225 -6.40542,0.332499 -10.93574,2.373323 -14.06977,6.338168 l -1.02696,1.299209 v -2.255493 c 0,-2.712486 -0.24405,-3.444678 -1.38247,-4.147733 -0.82169,-0.50745 -1.23358,-0.531397 -7.96618,-0.463143 l -7.09969,0.07198 -0.77167,0.86407 -0.77166,0.86407 V 81.747114 108.4862 l 0.7734,0.7734 0.7734,0.77339 h 7.1514 c 4.78446,0 7.37049,-0.0997 7.81281,-0.30124 z M 40.29352,48.072579 c 4.15779,-1.066346 7.54997,-4.855019 8.3659,-9.343761 0.99391,-5.46783 -2.58842,-11.218508 -8.01529,-12.866868 -1.45979,-0.443397 -2.32108,-0.535495 -4.17772,-0.446728 -2.0399,0.09753 -2.59235,0.237124 -4.32254,1.09223 -4.35526,2.152487 -6.76591,6.332062 -6.46197,11.203758 0.1717,2.752147 1.17899,5.039021 3.12659,7.098313 3.08583,3.262814 7.07111,4.395088 11.48503,3.263056 z"
     id="path5" /></svg>
