<?xml version="1.0" encoding="UTF-8" standalone="no"?>
<!-- Created with Inkscape (http://www.inkscape.org/) -->

<svg
   width="115.19345mm"
   height="79.77684mm"
   viewBox="0 0 115.19345 79.77684"
   version="1.1"
   id="svg1"
   xml:space="preserve"
   xmlns="http://www.w3.org/2000/svg"
   xmlns:svg="http://www.w3.org/2000/svg"><defs
     id="defs1" /><g
     id="g3"
     transform="translate(-6.3008003,-23.124109)"><path
       style="fill:#515151"
       d="m 40.502652,103.54414 c 13.133254,-0.0379 34.624034,-0.0379 47.757289,0 13.133259,0.0379 2.387864,0.069 -23.878645,0.069 -26.266509,0 -37.011899,-0.031 -23.878644,-0.069 z m 74.678638,-0.9639 c 0,-0.0572 0.18478,-0.17489 0.41062,-0.26155 0.23546,-0.0904 0.34166,-0.046 0.24897,0.10398 -0.15538,0.25141 -0.65959,0.37186 -0.65959,0.15757 z M 9.9927794,100.23683 9.2156741,99.376931 10.07557,100.15404 c 0.801543,0.72437 0.981512,0.94268 0.777105,0.94268 -0.04553,0 -0.432488,-0.38695 -0.8598956,-0.85989 z m 107.8343506,0.7771 c 0,-0.0455 0.38695,-0.43249 0.85989,-0.85989 l 0.8599,-0.777109 -0.77711,0.859899 c -0.72437,0.80154 -0.94268,0.98151 -0.94268,0.7771 z M 40.899527,99.310804 c 12.914973,-0.03796 34.048565,-0.03796 46.963539,0 12.914974,0.03796 2.348177,0.06902 -23.48177,0.06902 -25.829946,0 -36.396743,-0.03106 -23.481769,-0.06902 z M 14.254056,98.204589 c -0.08372,-0.135466 -0.05106,-0.308822 0.07258,-0.385237 0.123641,-0.07641 0.224802,0.03442 0.224802,0.246301 0,0.446132 -0.08343,0.485112 -0.297382,0.138936 z m 99.711474,-0.878178 -0.50403,-0.595313 0.59531,0.504028 c 0.32743,0.277215 0.59532,0.545106 0.59532,0.595313 0,0.211733 -0.21294,0.05542 -0.6866,-0.504028 z m -98.267565,-1.12448 c 0.341775,-0.363802 0.680939,-0.661458 0.7537,-0.661458 0.07276,0 -0.147342,0.297656 -0.489116,0.661458 -0.341775,0.363803 -0.680939,0.661459 -0.7537,0.661459 -0.07276,0 0.147342,-0.297656 0.489116,-0.661459 z m 96.288305,-1.124479 -0.64143,-0.727604 0.7276,0.641433 c 0.68006,0.599516 0.84894,0.813775 0.64143,0.813775 -0.0474,0 -0.37481,-0.327421 -0.7276,-0.727604 z M 17.68234,93.952973 c 0.263389,-0.291041 0.538421,-0.529166 0.611181,-0.529166 0.07276,0 -0.08321,0.238125 -0.346597,0.529166 -0.263389,0.291042 -0.538421,0.529167 -0.611181,0.529167 -0.07276,0 0.08321,-0.238125 0.346597,-0.529167 z m 99.0527,0.06615 c -0.32128,-0.409674 -0.31459,-0.42518 0.0581,-0.134587 0.23167,0.180638 0.51865,0.24017 0.63773,0.132292 0.11908,-0.107879 0.13087,-0.04731 0.0262,0.134587 -0.24601,0.427484 -0.28922,0.419568 -0.72202,-0.132292 z M 6.829967,63.790475 c 0,-16.516614 0.031752,-23.27341 0.070559,-15.015104 0.038808,8.258307 0.038808,21.7719 0,30.030207 -0.038808,8.258307 -0.070559,1.501511 -0.070559,-15.015103 z m 5.957582,29.236457 c 0.341774,-0.363802 0.680939,-0.661459 0.753699,-0.661459 0.07276,0 -0.147342,0.297657 -0.489116,0.661459 -0.341774,0.363802 -0.680939,0.661458 -0.753699,0.661458 -0.07276,0 0.147342,-0.297656 0.489116,-0.661458 z m 97.346641,-0.06615 -0.64144,-0.727604 0.72761,0.641433 c 0.68005,0.599516 0.84894,0.813775 0.64143,0.813775 -0.0474,0 -0.37482,-0.327422 -0.7276,-0.727604 z m 11.78952,-29.170311 c 0,-16.516614 0.0318,-23.27341 0.0706,-15.015104 0.0388,8.258307 0.0388,21.7719 0,30.030207 -0.0388,8.258307 -0.0706,1.501511 -0.0706,-15.015103 z m -110.860486,0 c 0,-16.225572 0.03178,-22.863306 0.07063,-14.75052 0.03885,8.112786 0.03885,21.388254 0,29.50104 -0.03885,8.112786 -0.07063,1.475052 -0.07063,-14.75052 z M 117.69028,63.658183 c 1e-5,-16.152811 0.0318,-22.721864 0.0707,-14.597893 0.0389,8.12397 0.0388,21.339907 -1e-5,29.368748 -0.0389,8.028842 -0.0707,1.381957 -0.0707,-14.770855 z m -2.66642,28.376561 -0.50402,-0.595312 0.59531,0.504028 c 0.55944,0.473662 0.71576,0.686597 0.50403,0.686597 -0.0502,0 -0.3181,-0.267891 -0.59532,-0.595313 z M 19.666715,91.704015 c 0.341774,-0.363802 0.680939,-0.661458 0.7537,-0.661458 0.07276,0 -0.147342,0.297656 -0.489117,0.661458 -0.341774,0.363802 -0.680939,0.661458 -0.753699,0.661458 -0.07276,0 0.147342,-0.297656 0.489116,-0.661458 z m -5.027083,-0.79375 c 0.341774,-0.363802 0.680939,-0.661458 0.7537,-0.661458 0.07276,0 -0.147342,0.297656 -0.489117,0.661458 -0.341774,0.363802 -0.680939,0.661458 -0.753699,0.661458 -0.07276,0 0.147342,-0.297656 0.489116,-0.661458 z m 93.642468,-0.06615 -0.64143,-0.727604 0.7276,0.641433 c 0.68006,0.599516 0.84894,0.813775 0.64144,0.813775 -0.0474,0 -0.37482,-0.327421 -0.72761,-0.727604 z m 4.7625,-1.058333 -0.64143,-0.727604 0.7276,0.641433 c 0.68006,0.599516 0.84894,0.813775 0.64144,0.813775 -0.0474,0 -0.37482,-0.327422 -0.72761,-0.727604 z M 21.518798,89.587348 c 0.341775,-0.363802 0.680939,-0.661458 0.7537,-0.661458 0.07276,0 -0.147342,0.297656 -0.489116,0.661458 -0.341775,0.363803 -0.680939,0.661459 -0.7537,0.661459 -0.07276,0 0.147342,-0.297656 0.489116,-0.661459 z m 84.911222,-0.859895 -0.64143,-0.727604 0.7276,0.641433 c 0.68006,0.599515 0.84894,0.813775 0.64143,0.813775 -0.0474,0 -0.37481,-0.327422 -0.7276,-0.727604 z m -89.806013,-0.06615 c 0.263389,-0.291042 0.53842,-0.529167 0.611181,-0.529167 0.07276,0 -0.08321,0.238125 -0.346598,0.529167 -0.263389,0.291042 -0.53842,0.529166 -0.611181,0.529166 -0.07276,0 0.08321,-0.238124 0.346598,-0.529166 z m 94.568513,-0.992188 -0.64143,-0.727604 0.7276,0.641433 c 0.68006,0.599516 0.84894,0.813776 0.64143,0.813776 -0.0474,0 -0.37481,-0.327422 -0.7276,-0.727605 z M 23.370882,87.470682 c 0.341774,-0.363802 0.680939,-0.661458 0.753699,-0.661458 0.07276,0 -0.147342,0.297656 -0.489116,0.661458 -0.341774,0.363802 -0.680939,0.661458 -0.753699,0.661458 -0.07276,0 0.147341,-0.297656 0.489116,-0.661458 z M 18.47609,86.54464 c 0.263389,-0.291041 0.538421,-0.529166 0.611181,-0.529166 0.07276,0 -0.08321,0.238125 -0.346597,0.529166 -0.26339,0.291042 -0.538421,0.529167 -0.611181,0.529167 -0.07276,0 0.08321,-0.238125 0.346597,-0.529167 z m 85.96444,-0.06615 -0.50403,-0.595312 0.59531,0.504028 c 0.32743,0.277215 0.59532,0.545106 0.59532,0.595312 0,0.211734 -0.21294,0.05542 -0.6866,-0.504028 z m 4.89991,-0.926041 -0.64144,-0.727604 0.72761,0.641433 c 0.68005,0.599516 0.84894,0.813775 0.64143,0.813775 -0.0474,0 -0.37482,-0.327422 -0.7276,-0.727604 z M 25.222965,85.354015 c 0.341774,-0.363802 0.680939,-0.661458 0.753699,-0.661458 0.07276,0 -0.147342,0.297656 -0.489116,0.661458 -0.341774,0.363802 -0.680939,0.661459 -0.753699,0.661459 -0.07276,0 0.147342,-0.297657 0.489116,-0.661459 z m -4.7625,-1.058333 c 0.341774,-0.363802 0.680939,-0.661458 0.7537,-0.661458 0.07276,0 -0.147342,0.297656 -0.489117,0.661458 -0.341774,0.363802 -0.680939,0.661458 -0.753699,0.661458 -0.07276,0 0.147342,-0.297656 0.489116,-0.661458 z m 82.127985,0.06615 -0.50403,-0.595313 0.59531,0.504028 c 0.55945,0.473662 0.71576,0.686597 0.50403,0.686597 -0.0502,0 -0.3181,-0.26789 -0.59531,-0.595312 z m 4.8999,-0.926042 -0.64143,-0.727604 0.7276,0.641433 c 0.40019,0.352788 0.72761,0.68021 0.72761,0.727604 0,0.207506 -0.21426,0.03862 -0.81378,-0.641433 z M 27.075048,83.237349 c 0.341774,-0.363802 0.680939,-0.661458 0.7537,-0.661458 0.07276,0 -0.147342,0.297656 -0.489117,0.661458 -0.341774,0.363802 -0.680939,0.661458 -0.753699,0.661458 -0.07276,0 0.147342,-0.297656 0.489116,-0.661458 z m -4.7625,-1.058333 c 0.341775,-0.363803 0.680939,-0.661459 0.7537,-0.661459 0.07276,0 -0.147342,0.297656 -0.489116,0.661459 -0.341775,0.363802 -0.680939,0.661458 -0.7537,0.661458 -0.07276,0 0.147342,-0.297656 0.489116,-0.661458 z m 78.296642,-0.06615 -0.641437,-0.727604 0.727607,0.641433 c 0.68005,0.599515 0.84894,0.813775 0.64143,0.813775 -0.0474,0 -0.37482,-0.327422 -0.7276,-0.727604 z m 5.02708,-0.79375 -0.64143,-0.727604 0.7276,0.641433 c 0.68006,0.599515 0.84894,0.813775 0.64143,0.813775 -0.0474,0 -0.37481,-0.327422 -0.7276,-0.727604 z M 29.059423,80.988391 c 0.263389,-0.291042 0.53842,-0.529167 0.611181,-0.529167 0.07276,0 -0.08321,0.238125 -0.346598,0.529167 -0.263389,0.291041 -0.53842,0.529166 -0.611181,0.529166 -0.07276,0 0.08321,-0.238125 0.346598,-0.529166 z m -4.894791,-0.926042 c 0.341774,-0.363802 0.680939,-0.661458 0.753699,-0.661458 0.07276,0 -0.147342,0.297656 -0.489116,0.661458 -0.341774,0.363802 -0.680939,0.661458 -0.7537,0.661458 -0.07276,0 0.147342,-0.297656 0.489117,-0.661458 z m 74.59247,-0.06615 -0.641433,-0.727604 0.727605,0.641433 c 0.680055,0.599516 0.848938,0.813775 0.641433,0.813775 -0.04739,0 -0.374816,-0.327422 -0.727605,-0.727604 z m 4.889678,-0.926041 -0.50403,-0.595313 0.59531,0.504028 c 0.32743,0.277215 0.59532,0.545106 0.59532,0.595312 0,0.211734 -0.21294,0.05542 -0.6866,-0.504027 z m -72.602982,-0.33073 c 0.341774,-0.363802 0.680939,-0.661458 0.753699,-0.661458 0.07276,0 -0.147341,0.297656 -0.489116,0.661458 -0.341774,0.363802 -0.680939,0.661459 -0.753699,0.661459 -0.07276,0 0.147342,-0.297657 0.489116,-0.661459 z m -5.027083,-0.79375 c 0.341774,-0.363802 0.680939,-0.661458 0.753699,-0.661458 0.07276,0 -0.147342,0.297656 -0.489116,0.661458 -0.341774,0.363802 -0.680939,0.661459 -0.753699,0.661459 -0.07276,0 0.147342,-0.297657 0.489116,-0.661459 z m 70.888304,-0.06615 -0.641433,-0.727605 0.727604,0.641434 c 0.680056,0.599515 0.848939,0.813775 0.641433,0.813775 -0.04739,0 -0.374816,-0.327422 -0.727604,-0.727604 z m 4.762501,-1.058334 -0.64143,-0.727604 0.7276,0.641433 c 0.68006,0.599516 0.84894,0.813775 0.64143,0.813775 -0.0474,0 -0.37481,-0.327421 -0.7276,-0.727604 z M 32.895881,76.622766 c 0.341774,-0.363802 0.680939,-0.661458 0.7537,-0.661458 0.07276,0 -0.147342,0.297656 -0.489117,0.661458 -0.341774,0.363802 -0.680939,0.661458 -0.753699,0.661458 -0.07276,0 0.147342,-0.297656 0.489116,-0.661458 z M 28.00109,75.696724 c 0.263389,-0.291041 0.53842,-0.529166 0.611181,-0.529166 0.07276,0 -0.08321,0.238125 -0.346598,0.529166 -0.263389,0.291042 -0.53842,0.529167 -0.611181,0.529167 -0.07276,0 0.08321,-0.238125 0.346598,-0.529167 z m 66.914441,-0.06615 -0.504028,-0.595312 0.595312,0.504028 c 0.327422,0.277215 0.595313,0.545106 0.595313,0.595312 0,0.211734 -0.212935,0.05542 -0.686597,-0.504028 z m 4.899905,-0.926041 -0.641433,-0.727604 0.727604,0.641433 c 0.680053,0.599515 0.848943,0.813775 0.641433,0.813775 -0.0474,0 -0.37482,-0.327422 -0.727604,-0.727604 z M 34.747964,74.506099 c 0.341775,-0.363802 0.680939,-0.661458 0.7537,-0.661458 0.07276,0 -0.147342,0.297656 -0.489116,0.661458 -0.341775,0.363802 -0.680939,0.661459 -0.7537,0.661459 -0.07276,0 0.147342,-0.297657 0.489116,-0.661459 z m 26.438307,-0.06615 -0.641433,-0.727604 0.727604,0.641433 c 0.680056,0.599516 0.848939,0.813776 0.641433,0.813776 -0.04739,0 -0.374816,-0.327422 -0.727604,-0.727605 z m 6.105442,0.06615 c 0.341774,-0.363802 0.680939,-0.661458 0.753699,-0.661458 0.07276,0 -0.147342,0.297656 -0.489116,0.661458 -0.341774,0.363802 -0.680939,0.661459 -0.753699,0.661459 -0.07276,0 0.147341,-0.297657 0.489116,-0.661459 z m -37.43854,-0.926041 c 0.263389,-0.291042 0.53842,-0.529167 0.611181,-0.529167 0.07276,0 -0.08321,0.238125 -0.346598,0.529167 -0.263389,0.291041 -0.53842,0.529166 -0.611181,0.529166 -0.07276,0 0.08321,-0.238125 0.346598,-0.529166 z m 63.210275,-0.06615 -0.504028,-0.595313 0.595312,0.504028 c 0.327422,0.277216 0.595313,0.545106 0.595313,0.595313 0,0.211733 -0.212936,0.05542 -0.686597,-0.504028 z M 69.408379,72.654016 c 0.341775,-0.363802 0.680939,-0.661458 0.7537,-0.661458 0.07276,0 -0.147342,0.297656 -0.489116,0.661458 -0.341775,0.363802 -0.68094,0.661458 -0.7537,0.661458 -0.07276,0 0.147342,-0.297656 0.489116,-0.661458 z m 28.554973,-0.06615 -0.641433,-0.727604 0.727605,0.641433 c 0.680055,0.599516 0.848939,0.813775 0.641433,0.813775 -0.04739,0 -0.374816,-0.327422 -0.727605,-0.727604 z M 36.600048,72.389433 c 0.341774,-0.363802 0.680939,-0.661459 0.753699,-0.661459 0.07276,0 -0.147342,0.297657 -0.489116,0.661459 -0.341774,0.363802 -0.680939,0.661458 -0.7537,0.661458 -0.07276,0 0.147342,-0.297656 0.489117,-0.661458 z m 22.332151,0.06615 -0.504028,-0.595313 0.595313,0.504028 c 0.559447,0.473662 0.715762,0.686597 0.504028,0.686597 -0.05021,0 -0.318097,-0.267891 -0.595313,-0.595312 z m -27.094651,-1.12448 c 0.341774,-0.363802 0.680939,-0.661458 0.753699,-0.661458 0.07276,0 -0.147342,0.297656 -0.489116,0.661458 -0.341774,0.363802 -0.680939,0.661459 -0.753699,0.661459 -0.07276,0 0.147342,-0.297657 0.489116,-0.661459 z m 59.373816,0.06615 -0.504028,-0.595312 0.595313,0.504028 c 0.559447,0.473662 0.715761,0.686597 0.504028,0.686597 -0.05021,0 -0.318097,-0.267891 -0.595313,-0.595313 z M 64.019461,71.255504 c -0.07066,-0.114338 0.09216,-0.207887 0.361835,-0.207887 0.269674,0 0.432499,0.09355 0.361835,0.207887 -0.07067,0.114338 -0.23349,0.207887 -0.361835,0.207887 -0.128344,0 -0.29117,-0.09355 -0.361835,-0.207887 z m -7.331106,-0.7843 -0.641433,-0.727604 0.727604,0.641433 c 0.680055,0.599515 0.848939,0.813775 0.641433,0.813775 -0.04739,0 -0.374816,-0.327422 -0.727604,-0.727604 z m 15.101274,0.06615 c 0.341774,-0.363802 0.680939,-0.661458 0.7537,-0.661458 0.07276,0 -0.147342,0.297656 -0.489117,0.661458 -0.341774,0.363803 -0.680939,0.661459 -0.753699,0.661459 -0.07276,0 0.147342,-0.297656 0.489116,-0.661459 z m 24.32164,-0.06615 -0.641433,-0.727604 0.727604,0.641433 c 0.680056,0.599515 0.848939,0.813775 0.641433,0.813775 -0.04739,0 -0.374816,-0.327422 -0.727604,-0.727604 z M 38.452131,70.272766 c 0.341774,-0.363802 0.680939,-0.661458 0.753699,-0.661458 0.07276,0 -0.147342,0.297656 -0.489116,0.661458 -0.341774,0.363802 -0.680939,0.661458 -0.753699,0.661458 -0.07276,0 0.147342,-0.297656 0.489116,-0.661458 z m 23.52789,-0.859896 -0.641433,-0.727604 0.727604,0.641433 c 0.680056,0.599516 0.848939,0.813775 0.641433,0.813775 -0.04739,0 -0.374816,-0.327421 -0.727604,-0.727604 z m 4.38565,0.198438 c 0.263389,-0.291042 0.538421,-0.529167 0.611181,-0.529167 0.07276,0 -0.08321,0.238125 -0.346598,0.529167 -0.263389,0.291042 -0.53842,0.529166 -0.611181,0.529166 -0.07276,0 0.08321,-0.238124 0.346598,-0.529166 z m -32.67604,-0.396875 c 0.341774,-0.363802 0.680939,-0.661458 0.7537,-0.661458 0.07276,0 -0.147342,0.297656 -0.489117,0.661458 -0.341774,0.363802 -0.680939,0.661458 -0.753699,0.661458 -0.07276,0 0.147342,-0.297656 0.489116,-0.661458 z m 55.542472,-0.06615 -0.641433,-0.727604 0.727604,0.641433 c 0.680056,0.599516 0.848939,0.813775 0.641433,0.813775 -0.04739,0 -0.374816,-0.327422 -0.727604,-0.727604 z M 73.906296,68.685266 c 0.341774,-0.363802 0.680939,-0.661458 0.753699,-0.661458 0.07276,0 -0.147342,0.297656 -0.489116,0.661458 -0.341774,0.363802 -0.680939,0.661459 -0.753699,0.661459 -0.07276,0 0.147341,-0.297657 0.489116,-0.661459 z m -19.599191,-0.330729 -0.641433,-0.727604 0.727604,0.641433 c 0.680055,0.599516 0.848939,0.813775 0.641433,0.813775 -0.04739,0 -0.374816,-0.327422 -0.727604,-0.727604 z m 39.814676,-0.132292 -0.504028,-0.595312 0.595312,0.504028 c 0.327422,0.277215 0.595313,0.545106 0.595313,0.595312 0,0.211734 -0.212935,0.05542 -0.686597,-0.504028 z M 40.436506,68.023808 c 0.263389,-0.291042 0.53842,-0.529167 0.611181,-0.529167 0.07276,0 -0.08321,0.238125 -0.346598,0.529167 -0.263389,0.291042 -0.53842,0.529167 -0.611181,0.529167 -0.07276,0 0.08321,-0.238125 0.346598,-0.529167 z m 19.426848,-0.463021 -0.641433,-0.727604 0.727605,0.641433 c 0.680055,0.599516 0.848939,0.813775 0.641433,0.813775 -0.04739,0 -0.374816,-0.327422 -0.727605,-0.727604 z m 8.751275,0.06615 c 0.341775,-0.363802 0.680939,-0.661458 0.7537,-0.661458 0.07276,0 -0.147342,0.297656 -0.489116,0.661458 -0.341775,0.363802 -0.680939,0.661458 -0.7537,0.661458 -0.07276,0 0.147342,-0.297656 0.489116,-0.661458 z M 35.541714,67.097766 c 0.341775,-0.363802 0.680939,-0.661458 0.7537,-0.661458 0.07276,0 -0.147342,0.297656 -0.489116,0.661458 -0.341775,0.363802 -0.680939,0.661459 -0.7537,0.661459 -0.07276,0 0.147342,-0.297657 0.489116,-0.661459 z m 51.838306,-0.06615 -0.641433,-0.727604 0.727604,0.641433 c 0.680055,0.599516 0.848939,0.813776 0.641433,0.813776 -0.04739,0 -0.374816,-0.327422 -0.727604,-0.727605 z m -35.189582,-0.529166 -0.641433,-0.727604 0.727604,0.641433 c 0.680056,0.599516 0.848939,0.813775 0.641433,0.813775 -0.04739,0 -0.374816,-0.327422 -0.727604,-0.727604 z m 24.097108,0.06615 c 0.341774,-0.363802 0.680939,-0.661459 0.753699,-0.661459 0.07276,0 -0.147342,0.297657 -0.489116,0.661459 -0.341774,0.363802 -0.680939,0.661458 -0.7537,0.661458 -0.07276,0 0.147342,-0.297656 0.489117,-0.661458 z m 15.854973,-0.595313 -0.641433,-0.727604 0.727605,0.641433 c 0.680055,0.599516 0.848938,0.813775 0.641433,0.813775 -0.0474,0 -0.374816,-0.327422 -0.727605,-0.727604 z M 42.420881,65.77485 c 0.341774,-0.363802 0.680939,-0.661459 0.753699,-0.661459 0.07276,0 -0.147342,0.297657 -0.489116,0.661459 -0.341774,0.363802 -0.680939,0.661458 -0.7537,0.661458 -0.07276,0 0.147342,-0.297656 0.489117,-0.661458 z m 15.061224,-0.330729 -0.641433,-0.727605 0.727604,0.641434 c 0.680055,0.599515 0.848939,0.813775 0.641433,0.813775 -0.04739,0 -0.374816,-0.327422 -0.727604,-0.727604 z m 13.381482,0.198437 c 0.26339,-0.291042 0.538421,-0.529167 0.611181,-0.529167 0.07276,0 -0.08321,0.238125 -0.346597,0.529167 -0.263389,0.291042 -0.538421,0.529167 -0.611181,0.529167 -0.07276,0 0.08321,-0.238125 0.346597,-0.529167 z M 37.393798,64.9811 c 0.341774,-0.363802 0.680939,-0.661459 0.753699,-0.661459 0.07276,0 -0.147342,0.297657 -0.489116,0.661459 -0.341774,0.363802 -0.680939,0.661458 -0.7537,0.661458 -0.07276,0 0.147342,-0.297656 0.489117,-0.661458 z m 48.134138,-0.06615 -0.641433,-0.727604 0.727605,0.641433 c 0.680055,0.599516 0.848939,0.813775 0.641433,0.813775 -0.04739,0 -0.374816,-0.327422 -0.727605,-0.727604 z m -7.123724,-0.198438 c 0.341774,-0.363802 0.680939,-0.661458 0.7537,-0.661458 0.07276,0 -0.147342,0.297656 -0.489117,0.661458 -0.341774,0.363803 -0.680939,0.661459 -0.753699,0.661459 -0.07276,0 0.147342,-0.297656 0.489116,-0.661459 z m -28.595024,-0.330729 -0.641433,-0.727604 0.727604,0.641433 c 0.680056,0.599516 0.848939,0.813775 0.641433,0.813775 -0.04739,0 -0.374815,-0.327421 -0.727604,-0.727604 z m 40.481248,-0.529166 -0.641433,-0.727604 0.727604,0.641433 c 0.680056,0.599515 0.848939,0.813775 0.641433,0.813775 -0.04739,0 -0.374816,-0.327422 -0.727604,-0.727604 z M 44.272964,63.658183 c 0.341774,-0.363802 0.680939,-0.661458 0.753699,-0.661458 0.07276,0 -0.147342,0.297656 -0.489116,0.661458 -0.341774,0.363802 -0.680939,0.661458 -0.753699,0.661458 -0.07276,0 0.147342,-0.297656 0.489116,-0.661458 z m 11.092474,-0.06615 -0.641433,-0.727604 0.727604,0.641433 c 0.680056,0.599516 0.848939,0.813775 0.641433,0.813775 -0.04739,0 -0.374816,-0.327421 -0.727604,-0.727604 z m 17.747108,0.06615 c 0.341774,-0.363802 0.680939,-0.661458 0.753699,-0.661458 0.07276,0 -0.147342,0.297656 -0.489116,0.661458 -0.341774,0.363802 -0.680939,0.661458 -0.753699,0.661458 -0.07276,0 0.147341,-0.297656 0.489116,-0.661458 z M 39.378172,62.732142 c 0.26339,-0.291042 0.538421,-0.529167 0.611181,-0.529167 0.07276,0 -0.08321,0.238125 -0.346597,0.529167 -0.263389,0.291041 -0.538421,0.529166 -0.611181,0.529166 -0.07276,0 0.08321,-0.238125 0.346597,-0.529166 z m 8.31435,-0.198438 -0.641433,-0.727604 0.727604,0.641433 c 0.680055,0.599516 0.848939,0.813775 0.641433,0.813775 -0.04739,0 -0.374816,-0.327422 -0.727604,-0.727604 z m 33.09294,0.06615 c 0.341774,-0.363802 0.680939,-0.661458 0.753699,-0.661458 0.07276,0 -0.147341,0.297656 -0.489116,0.661458 -0.341774,0.363802 -0.680939,0.661458 -0.753699,0.661458 -0.07276,0 0.147342,-0.297656 0.489116,-0.661458 z m 2.752986,0.06615 -0.504028,-0.595313 0.595313,0.504028 c 0.327422,0.277216 0.595312,0.545106 0.595312,0.595313 0,0.211733 -0.212935,0.05542 -0.686597,-0.504028 z m 4.899905,-0.926042 -0.641433,-0.727604 0.727604,0.641433 c 0.680056,0.599516 0.848939,0.813775 0.641433,0.813775 -0.04739,0 -0.374816,-0.327422 -0.727604,-0.727604 z M 45.59588,62.10308 c 0,-0.05494 0.20836,-0.263301 0.463021,-0.463021 0.419644,-0.329107 0.429003,-0.319749 0.0999,0.09989 -0.345644,0.440729 -0.562916,0.580887 -0.562916,0.363126 z m 7.388308,-0.627709 -0.641433,-0.727604 0.727604,0.641433 c 0.680056,0.599515 0.848939,0.813775 0.641433,0.813775 -0.04739,0 -0.374816,-0.327422 -0.727604,-0.727604 z m 22.377316,0.198437 c 0.263389,-0.291041 0.53842,-0.529166 0.611181,-0.529166 0.07276,0 -0.08321,0.238125 -0.346598,0.529166 -0.263389,0.291042 -0.53842,0.529167 -0.611181,0.529167 -0.07276,0 0.08321,-0.238125 0.346598,-0.529167 z M 41.230256,60.615475 c 0.263389,-0.291042 0.53842,-0.529167 0.611181,-0.529167 0.07276,0 -0.08321,0.238125 -0.346598,0.529167 -0.263389,0.291042 -0.53842,0.529167 -0.611181,0.529167 -0.07276,0 0.08321,-0.238125 0.346598,-0.529167 z m 9.637266,-0.992187 -0.641433,-0.727605 0.727604,0.641433 c 0.680055,0.599516 0.848939,0.813776 0.641433,0.813776 -0.04739,0 -0.374816,-0.327422 -0.727604,-0.727604 z m 26.74294,0.06614 c 0.341774,-0.363802 0.680939,-0.661458 0.7537,-0.661458 0.07276,0 -0.147342,0.297656 -0.489117,0.661458 -0.341774,0.363802 -0.680939,0.661459 -0.753699,0.661459 -0.07276,0 0.147342,-0.297657 0.489116,-0.661459 z m 8.975808,-0.06614 -0.641433,-0.727605 0.727604,0.641433 c 0.680055,0.599516 0.848939,0.813776 0.641433,0.813776 -0.04739,0 -0.374816,-0.327422 -0.727604,-0.727604 z m -43.787413,-1.12448 c 0,-0.342698 0.08945,-0.432152 0.260803,-0.260803 0.17135,0.171349 0.17135,0.350258 0,0.521607 -0.171349,0.171349 -0.260803,0.0819 -0.260803,-0.260804 z m 5.687415,-0.992187 -0.641433,-0.727604 0.727604,0.641433 c 0.680055,0.599516 0.848939,0.813775 0.641433,0.813775 -0.04739,0 -0.374816,-0.327422 -0.727604,-0.727604 z m 31.373148,0.198437 c 0.263389,-0.291041 0.538421,-0.529166 0.611181,-0.529166 0.07276,0 -0.08321,0.238125 -0.346597,0.529166 -0.263389,0.291042 -0.538421,0.529167 -0.611181,0.529167 -0.07276,0 0.08321,-0.238125 0.346597,-0.529167 z m 7.540625,-0.926041 c 0.341774,-0.363802 0.680939,-0.661458 0.753699,-0.661458 0.07276,0 -0.147341,0.297656 -0.489116,0.661458 -0.341774,0.363802 -0.680939,0.661458 -0.753699,0.661458 -0.07276,0 0.147342,-0.297656 0.489116,-0.661458 z m -46.58669,-0.330729 -0.641433,-0.727604 0.727605,0.641433 c 0.680055,0.599515 0.848939,0.813775 0.641433,0.813775 -0.04739,0 -0.374816,-0.327422 -0.727605,-0.727604 z m 5.55625,-0.79375 -0.641433,-0.727604 0.727604,0.641433 c 0.680056,0.599515 0.848939,0.813775 0.641433,0.813775 -0.04739,0 -0.374816,-0.327422 -0.727604,-0.727604 z m 35.738774,0.06615 c 0.341774,-0.363802 0.680939,-0.661459 0.753699,-0.661459 0.07276,0 -0.147342,0.297657 -0.489116,0.661459 -0.341774,0.363802 -0.680939,0.661458 -0.7537,0.661458 -0.07276,0 0.147342,-0.297656 0.489117,-0.661458 z m 7.672916,-1.058334 c 0.341774,-0.363802 0.680939,-0.661458 0.753699,-0.661458 0.07276,0 -0.147342,0.297656 -0.489116,0.661458 -0.341774,0.363802 -0.680939,0.661459 -0.753699,0.661459 -0.07276,0 0.147342,-0.297657 0.489116,-0.661459 z M 38.559284,54.463913 38.055256,53.8686 l 0.595312,0.504028 c 0.559447,0.473662 0.715762,0.686597 0.504028,0.686597 -0.05021,0 -0.318097,-0.26789 -0.595312,-0.595312 z m 5.429071,-0.926042 -0.641433,-0.727604 0.727604,0.641433 c 0.680056,0.599516 0.848939,0.813775 0.641433,0.813775 -0.04739,0 -0.374816,-0.327422 -0.727604,-0.727604 z m 40.368982,0.198438 c 0.263389,-0.291042 0.53842,-0.529167 0.611181,-0.529167 0.07276,0 -0.08321,0.238125 -0.346598,0.529167 -0.263389,0.291041 -0.53842,0.529166 -0.611181,0.529166 -0.07276,0 0.08321,-0.238125 0.346598,-0.529166 z m 7.540624,-0.926042 c 0.341775,-0.363802 0.680939,-0.661458 0.7537,-0.661458 0.07276,0 -0.147342,0.297656 -0.489116,0.661458 -0.341775,0.363802 -0.680939,0.661458 -0.7537,0.661458 -0.07276,0 0.147342,-0.297656 0.489116,-0.661458 z m -55.582522,-0.330729 -0.641433,-0.727604 0.727604,0.641433 c 0.680056,0.599516 0.848939,0.813775 0.641433,0.813775 -0.04739,0 -0.374816,-0.327422 -0.727604,-0.727604 z m 5.55625,-0.79375 -0.641433,-0.727604 0.727604,0.641433 c 0.680055,0.599516 0.848939,0.813775 0.641433,0.813775 -0.04739,0 -0.374816,-0.327422 -0.727604,-0.727604 z m 44.734606,0.06615 c 0.341774,-0.363802 0.680939,-0.661459 0.753699,-0.661459 0.07276,0 -0.147341,0.297657 -0.489116,0.661459 -0.341774,0.363802 -0.680939,0.661458 -0.753699,0.661458 -0.07276,0 0.147342,-0.297656 0.489116,-0.661458 z m 7.672916,-1.058333 c 0.341775,-0.363803 0.680939,-0.661459 0.7537,-0.661459 0.07276,0 -0.147342,0.297656 -0.489116,0.661459 -0.341775,0.363802 -0.680939,0.661458 -0.7537,0.661458 -0.07276,0 0.147342,-0.297656 0.489116,-0.661458 z m -60.217844,-0.198438 -0.504028,-0.595312 0.595313,0.504027 c 0.559447,0.473662 0.715761,0.686597 0.504028,0.686597 -0.05021,0 -0.318097,-0.26789 -0.595313,-0.595312 z m 5.429072,-0.926042 -0.641433,-0.727604 0.727604,0.641433 c 0.680056,0.599516 0.848939,0.813776 0.641433,0.813776 -0.04739,0 -0.374816,-0.327422 -0.727604,-0.727605 z m 49.497106,0.06615 c 0.341774,-0.363802 0.680939,-0.661458 0.753699,-0.661458 0.07276,0 -0.147342,0.297656 -0.489116,0.661458 -0.341774,0.363802 -0.680939,0.661459 -0.753699,0.661459 -0.07276,0 0.147342,-0.297657 0.489116,-0.661459 z m 6.879166,-0.215082 c 0,-0.04553 0.386953,-0.432488 0.859896,-0.859896 l 0.859896,-0.777105 -0.777106,0.859896 c -0.724371,0.801543 -0.942686,0.981512 -0.942686,0.777105 z m -64.049188,-0.909397 -0.641433,-0.727604 0.727604,0.641433 c 0.680055,0.599516 0.848939,0.813775 0.641433,0.813775 -0.04739,0 -0.374816,-0.327422 -0.727604,-0.727604 z m 5.427338,-0.926041 -0.777105,-0.859896 0.859896,0.777105 c 0.801543,0.724371 0.981512,0.942686 0.777105,0.942686 -0.04554,0 -0.432488,-0.386953 -0.859896,-0.859895 z m 53.85935,0.198437 c 0.341775,-0.363802 0.680939,-0.661458 0.7537,-0.661458 0.07276,0 -0.147342,0.297656 -0.489116,0.661458 -0.341775,0.363802 -0.680939,0.661458 -0.7537,0.661458 -0.07276,0 0.147342,-0.297656 0.489116,-0.661458 z m 7.672917,-1.058333 c 0.341774,-0.363802 0.680939,-0.661459 0.753699,-0.661459 0.07276,0 -0.147342,0.297657 -0.489116,0.661459 -0.341774,0.363802 -0.680939,0.661458 -0.753699,0.661458 -0.07276,0 0.147341,-0.297656 0.489116,-0.661458 z m -69.213677,-0.198438 -0.504028,-0.595312 0.595312,0.504028 c 0.559447,0.473662 0.715762,0.686597 0.504028,0.686597 -0.05021,0 -0.318097,-0.267891 -0.595312,-0.595313 z m 5.429071,-0.926041 -0.641433,-0.727605 0.727605,0.641434 c 0.680055,0.599515 0.848939,0.813775 0.641433,0.813775 -0.04739,0 -0.374816,-0.327422 -0.727605,-0.727604 z m 58.492939,0.06614 c 0.341775,-0.363802 0.680939,-0.661458 0.7537,-0.661458 0.07276,0 -0.147342,0.297656 -0.489116,0.661458 -0.341775,0.363803 -0.680939,0.661459 -0.7537,0.661459 -0.07276,0 0.147342,-0.297656 0.489116,-0.661459 z m -66.165855,-1.124479 -0.641433,-0.727604 0.727604,0.641433 c 0.680056,0.599516 0.848939,0.813775 0.641433,0.813775 -0.04739,0 -0.374816,-0.327421 -0.727604,-0.727604 z m 73.838774,0.06615 c 0.34177,-0.363802 0.68094,-0.661458 0.7537,-0.661458 0.0728,0 -0.14734,0.297656 -0.48912,0.661458 -0.34177,0.363802 -0.68094,0.661458 -0.7537,0.661458 -0.0728,0 0.14734,-0.297656 0.48912,-0.661458 z m -5.556252,-0.79375 c 0.341774,-0.363802 0.680939,-0.661458 0.753699,-0.661458 0.07276,0 -0.147342,0.297656 -0.489116,0.661458 -0.341774,0.363802 -0.680939,0.661459 -0.753699,0.661459 -0.07276,0 0.147342,-0.297657 0.489116,-0.661459 z m -62.990855,-0.330729 -0.641433,-0.727604 0.727604,0.641433 c 0.680055,0.599516 0.848939,0.813775 0.641433,0.813775 -0.04739,0 -0.374816,-0.327422 -0.727604,-0.727604 z m 70.663767,-0.727604 c 0.34178,-0.363802 0.68094,-0.661458 0.7537,-0.661458 0.0728,0 -0.14734,0.297656 -0.48911,0.661458 -0.34178,0.363802 -0.68094,0.661458 -0.7537,0.661458 -0.0728,0 0.14734,-0.297656 0.48911,-0.661458 z m -78.209505,-0.198438 -0.504028,-0.595312 0.595312,0.504028 c 0.559447,0.473662 0.715762,0.686597 0.504028,0.686597 -0.05021,0 -0.318097,-0.267891 -0.595312,-0.595313 z m 5.429071,-0.926041 -0.641433,-0.727604 0.727604,0.641433 c 0.680056,0.599516 0.848939,0.813775 0.641433,0.813775 -0.04739,0 -0.374816,-0.327422 -0.727604,-0.727604 z m 67.488772,0.06615 c 0.341774,-0.363802 0.680939,-0.661459 0.753699,-0.661459 0.07276,0 -0.147342,0.297657 -0.489116,0.661459 -0.341774,0.363802 -0.680939,0.661458 -0.753699,0.661458 -0.07276,0 0.147341,-0.297656 0.489116,-0.661458 z M 22.82169,40.5733 l -0.641433,-0.727605 0.727604,0.641433 c 0.680055,0.599516 0.848939,0.813776 0.641433,0.813776 -0.04739,0 -0.374816,-0.327422 -0.727604,-0.727604 z m 82.8346,0.06614 c 0.34178,-0.363802 0.68094,-0.661458 0.7537,-0.661458 0.0728,0 -0.14734,0.297656 -0.48911,0.661458 -0.34178,0.363802 -0.68094,0.661459 -0.7537,0.661459 -0.0728,0 0.14734,-0.297657 0.48911,-0.661459 z m -5.55625,-0.79375 c 0.34178,-0.363802 0.68094,-0.661458 0.7537,-0.661458 0.0728,0 -0.14734,0.297656 -0.48911,0.661458 -0.34178,0.363802 -0.680941,0.661459 -0.753702,0.661459 -0.07276,0 0.147342,-0.297657 0.489112,-0.661459 z m -71.986684,-0.330729 -0.641433,-0.727604 0.727604,0.641433 c 0.680056,0.599516 0.848939,0.813775 0.641433,0.813775 -0.04739,0 -0.374816,-0.327421 -0.727604,-0.727604 z m 79.659604,-0.727604 c 0.34177,-0.363802 0.68094,-0.661458 0.7537,-0.661458 0.0728,0 -0.14734,0.297656 -0.48912,0.661458 -0.34177,0.363802 -0.68094,0.661458 -0.7537,0.661458 -0.0728,0 0.14735,-0.297656 0.48912,-0.661458 z M 20.567618,38.58892 20.06359,37.993607 l 0.595313,0.504028 c 0.559446,0.473662 0.715761,0.686597 0.504028,0.686597 -0.05021,0 -0.318098,-0.26789 -0.595313,-0.595312 z m 5.429072,-0.926042 -0.641433,-0.727604 0.727604,0.641433 c 0.680055,0.599516 0.848939,0.813775 0.641433,0.813775 -0.04739,0 -0.374816,-0.327422 -0.727604,-0.727604 z m 76.4846,0.06615 c 0.34178,-0.363802 0.68094,-0.661458 0.7537,-0.661458 0.0728,0 -0.14734,0.297656 -0.48911,0.661458 -0.34178,0.363802 -0.68094,0.661458 -0.7537,0.661458 -0.0728,0 0.14734,-0.297656 0.48911,-0.661458 z m -84.157517,-1.124479 -0.641433,-0.727604 0.727604,0.641433 c 0.680056,0.599515 0.848939,0.813775 0.641433,0.813775 -0.04739,0 -0.374815,-0.327422 -0.727604,-0.727604 z m 91.830437,0.06615 c 0.34177,-0.363802 0.68094,-0.661459 0.7537,-0.661459 0.0728,0 -0.14734,0.297657 -0.48912,0.661459 -0.34177,0.363802 -0.68094,0.661458 -0.7537,0.661458 -0.0728,0 0.14735,-0.297656 0.48912,-0.661458 z m -5.55625,-0.79375 c 0.34178,-0.363802 0.68094,-0.661459 0.7537,-0.661459 0.0728,0 -0.14734,0.297657 -0.48912,0.661459 -0.34177,0.363802 -0.68094,0.661458 -0.7537,0.661458 -0.0728,0 0.14735,-0.297656 0.48912,-0.661458 z m -80.98252,-0.33073 -0.641433,-0.727604 0.727604,0.641433 c 0.680055,0.599516 0.848939,0.813776 0.641433,0.813776 -0.04739,0 -0.374816,-0.327422 -0.727604,-0.727605 z m 88.65544,-0.727604 c 0.34177,-0.363802 0.68094,-0.661458 0.7537,-0.661458 0.0728,0 -0.14735,0.297656 -0.48912,0.661458 -0.34177,0.363802 -0.68094,0.661459 -0.7537,0.661459 -0.0728,0 0.14734,-0.297657 0.48912,-0.661459 z m -96.328357,-0.330729 -0.641433,-0.727604 0.727605,0.641433 c 0.680055,0.599516 0.848939,0.813775 0.641433,0.813775 -0.04739,0 -0.374816,-0.327422 -0.727605,-0.727604 z m 5.55625,-0.79375 -0.641433,-0.727604 0.727604,0.641433 c 0.680056,0.599516 0.848939,0.813775 0.641433,0.813775 -0.04739,0 -0.374816,-0.327421 -0.727604,-0.727604 z m 85.480437,0.06615 c 0.34177,-0.363802 0.68094,-0.661458 0.7537,-0.661458 0.0728,0 -0.14734,0.297656 -0.48912,0.661458 -0.34177,0.363802 -0.68094,0.661458 -0.7537,0.661458 -0.0728,0 0.14735,-0.297656 0.48912,-0.661458 z m -93.153353,-1.124479 -0.641433,-0.727604 0.727604,0.641433 c 0.680056,0.599516 0.848939,0.813775 0.641433,0.813775 -0.04739,0 -0.374816,-0.327422 -0.727604,-0.727604 z m 100.826273,0.06615 c 0.34177,-0.363802 0.68094,-0.661458 0.7537,-0.661458 0.0728,0 -0.14735,0.297656 -0.48912,0.661458 -0.34177,0.363802 -0.68094,0.661458 -0.7537,0.661458 -0.0728,0 0.14734,-0.297656 0.48912,-0.661458 z m -5.55625,-0.79375 c 0.34177,-0.363802 0.68094,-0.661458 0.7537,-0.661458 0.0728,0 -0.14735,0.297656 -0.48912,0.661458 -0.34177,0.363802 -0.68094,0.661458 -0.7537,0.661458 -0.0728,0 0.14734,-0.297656 0.48912,-0.661458 z m -89.978357,-0.330729 -0.641433,-0.727604 0.727604,0.641433 c 0.680056,0.599515 0.848939,0.813775 0.641433,0.813775 -0.04739,0 -0.374816,-0.327422 -0.727604,-0.727604 z m 97.352937,0 c -0.32911,-0.419644 -0.31975,-0.429003 0.0999,-0.0999 0.44073,0.345644 0.58088,0.562916 0.36312,0.562916 -0.0549,0 -0.2633,-0.20836 -0.46302,-0.463021 z m -99.469603,-1.852084 -0.641433,-0.727604 0.727604,0.641433 c 0.680055,0.599516 0.848939,0.813776 0.641433,0.813776 -0.04739,0 -0.374816,-0.327422 -0.727604,-0.727605 z m 94.476273,0.06615 c 0.34177,-0.363802 0.68094,-0.661458 0.7537,-0.661458 0.0728,0 -0.14735,0.297656 -0.48912,0.661458 -0.34177,0.363802 -0.68094,0.661459 -0.7537,0.661459 -0.0728,0 0.14734,-0.297657 0.48912,-0.661459 z M 9.0833824,28.236415 c 0,-0.05494 0.2083594,-0.263301 0.4630208,-0.463021 0.4196439,-0.329107 0.4290023,-0.319749 0.099895,0.0999 -0.3456436,0.440729 -0.5629156,0.580887 -0.5629156,0.363126 z M 40.502652,28.13789 c 13.133254,-0.03794 34.624034,-0.03794 47.757289,0 13.133259,0.03794 2.387864,0.06898 -23.878645,0.06898 -26.266509,0 -37.011899,-0.03104 -23.878644,-0.06898 z m 78.613638,-0.264601 c -0.3291,-0.419644 -0.31974,-0.429002 0.0999,-0.0999 0.25466,0.19972 0.46302,0.408079 0.46302,0.463021 0,0.217761 -0.21727,0.0776 -0.56292,-0.363126 z m -1.44659,-1.455208 -0.50403,-0.595313 0.59531,0.504028 c 0.55945,0.473662 0.71576,0.686597 0.50403,0.686597 -0.0502,0 -0.3181,-0.26789 -0.59531,-0.595312 z M 10.670882,26.648915 c 0,-0.05494 0.20836,-0.263301 0.463021,-0.463021 0.419644,-0.329107 0.429002,-0.319749 0.0999,0.0999 -0.345644,0.440729 -0.562916,0.580887 -0.562916,0.363126 z m 5.754688,-2.721167 c 0.181901,-0.0734 0.479557,-0.0734 0.661458,0 0.181901,0.0734 0.03307,0.133453 -0.330729,0.133453 -0.363802,0 -0.512631,-0.06005 -0.330729,-0.133453 z m 95.24999,0 c 0.18191,-0.0734 0.47956,-0.0734 0.66146,0 0.1819,0.0734 0.0331,0.133453 -0.33073,0.133453 -0.3638,0 -0.51263,-0.06005 -0.33073,-0.133453 z"
       id="path4" /><path
       style="fill:#031838;fill-opacity:1"
       d="M 15.036507,103.10843 C 11.352732,101.93534 8.6980585,99.373661 7.5093138,95.844927 6.9616222,94.219129 6.9586123,94.014678 7.0285895,63.190827 l 0.070418,-31.018059 0.852859,-1.742874 c 1.6151647,-3.300696 4.8690035,-5.750022 8.4075575,-6.328785 2.158745,-0.353083 93.884996,-0.353083 96.043746,0 3.50989,0.574074 6.80595,3.056034 8.40917,6.332173 l 0.85124,1.739486 v 31.485415 31.485415 l -0.84269,1.778881 c -1.1711,2.472131 -2.89875,4.232191 -5.33728,5.437411 l -1.99456,0.98579 -48.697104,0.0499 c -38.822586,0.0398 -48.911708,-0.0185 -49.755439,-0.28714 z m 98.358853,-4.311934 c 0.69122,-0.319239 1.25677,-0.650502 1.25677,-0.73614 0,-0.258874 -32.028479,-36.651131 -32.256311,-36.651131 -0.116296,0 -3.978305,3.325502 -8.582244,7.390004 -4.603938,4.064502 -8.609631,7.465806 -8.901538,7.558454 -0.291907,0.09265 -0.770111,0.09248 -1.062674,-3.79e-4 -0.292563,-0.09286 -4.29839,-3.498337 -8.901837,-7.567737 -4.603447,-4.0694 -8.460894,-7.364966 -8.572105,-7.323479 -0.11121,0.04149 -7.194002,8.052616 -15.739537,17.802511 -8.545535,9.749895 -15.77169,17.985692 -16.058122,18.30177 l -0.520786,0.574688 0.811896,0.419848 c 0.446543,0.230916 1.26225,0.526707 1.812682,0.657313 0.574963,0.136426 21.095836,0.21986 48.228909,0.196089 l 47.228127,-0.04138 z M 27.648636,76.330192 c 8.488537,-9.676727 15.433703,-17.688243 15.433703,-17.803369 0,-0.115127 -6.905625,-6.305875 -15.345833,-13.757218 -15.07977,-13.313007 -15.353564,-13.538362 -15.79181,-12.997956 -0.245288,0.302467 -0.574861,1.171299 -0.732383,1.930738 -0.344868,1.662654 -0.270249,59.92376 0.07744,60.461871 0.164037,0.253879 0.313784,0.267397 0.573588,0.05178 0.193377,-0.160489 7.296761,-8.209119 15.785298,-17.885845 z M 117.76662,64.507857 c 0.0736,-30.165868 0.0342,-31.525174 -0.94872,-32.735351 -0.4381,-0.539386 -0.71476,-0.311714 -15.66364,12.890172 -8.369714,7.39159 -15.264988,13.558318 -15.322833,13.703839 -0.175893,0.442501 31.297373,36.123737 31.598823,35.823577 0.17236,-0.171617 0.28961,-10.518335 0.33637,-29.682237 z M 88.714523,50.07904 C 101.96156,38.390407 112.80004,28.730465 112.80004,28.612504 c 0,-0.117962 -0.26789,-0.286268 -0.59531,-0.374014 -0.78495,-0.21036 -94.872221,-0.207577 -95.657688,0.0028 -0.333373,0.0893 -0.564967,0.285862 -0.514654,0.436801 0.130314,0.390942 48.177066,42.787135 48.406615,42.713734 0.1045,-0.03341 11.028483,-9.624182 24.27552,-21.312814 z"
       id="path3" /></g></svg>
