<?xml version="1.0" encoding="UTF-8" standalone="no"?>
<!-- Created with Inkscape (http://www.inkscape.org/) -->

<svg
   width="135.37741mm"
   height="135.39473mm"
   viewBox="0 0 135.37741 135.39473"
   version="1.1"
   id="svg1"
   xml:space="preserve"
   xmlns="http://www.w3.org/2000/svg"
   xmlns:svg="http://www.w3.org/2000/svg"><defs
     id="defs1" /><g
     id="g1"
     transform="translate(-0.05905389,-0.03015168)"><path
       style="fill:#9dd6a1"
       d="m 6.8130205,135.29143 c 0.181901,-0.0734 0.4795572,-0.0734 0.6614583,0 0.181901,0.0734 0.033073,0.13345 -0.3307292,0.13345 -0.363802,0 -0.5126302,-0.06 -0.3307291,-0.13345 z m 56.3562475,-0.0115 c 0.327421,-0.0631 0.863203,-0.0631 1.190624,0 0.327422,0.0631 0.05953,0.11467 -0.595312,0.11467 -0.654844,0 -0.922734,-0.0516 -0.595312,-0.11467 z m 8.073429,-0.003 c 0.402183,-0.0608 0.997495,-0.0592 1.322916,0.004 0.325421,0.0628 -0.0036,0.11256 -0.731242,0.11057 -0.727604,-0.002 -0.993857,-0.0534 -0.591674,-0.11418 z M 8.4170568,135.02134 c 0.1909961,-0.0764 0.4191992,-0.067 0.5071181,0.0209 0.087919,0.0879 -0.068351,0.15046 -0.3472656,0.13897 -0.3082245,-0.0127 -0.3709192,-0.0754 -0.1598525,-0.15985 z m 51.7145382,-0.003 c 0.257431,-0.0671 0.614618,-0.0627 0.79375,0.01 0.179131,0.0725 -0.03149,0.12736 -0.468057,0.12197 -0.436562,-0.005 -0.583124,-0.0647 -0.325693,-0.13178 z m 14.552082,0 c 0.257431,-0.0671 0.614619,-0.0627 0.79375,0.01 0.179132,0.0725 -0.03149,0.12736 -0.468056,0.12197 -0.436562,-0.005 -0.583125,-0.0647 -0.325694,-0.13178 z m -16.524956,-0.26197 c 0.190996,-0.0764 0.419199,-0.067 0.507118,0.0209 0.08792,0.0879 -0.06835,0.15045 -0.347266,0.13896 -0.308224,-0.0127 -0.370919,-0.0754 -0.159852,-0.15985 z m 18.785416,0 c 0.190996,-0.0764 0.419199,-0.067 0.507118,0.0209 0.08792,0.0879 -0.06835,0.15045 -0.347266,0.13896 -0.308224,-0.0127 -0.370919,-0.0754 -0.159852,-0.15985 z m -20.372916,-0.26458 c 0.190996,-0.0764 0.419199,-0.067 0.507118,0.0209 0.08792,0.0879 -0.06835,0.15045 -0.347266,0.13896 -0.308224,-0.0127 -0.370919,-0.0754 -0.159852,-0.15985 z m 22.224999,0 c 0.190996,-0.0764 0.419199,-0.067 0.507118,0.0209 0.08792,0.0879 -0.06835,0.15045 -0.347266,0.13896 -0.308224,-0.0127 -0.370919,-0.0754 -0.159852,-0.15985 z m -23.812499,-0.26458 c 0.190996,-0.0764 0.419199,-0.067 0.507118,0.0209 0.08792,0.0879 -0.06835,0.15046 -0.347266,0.13897 -0.308224,-0.0127 -0.370919,-0.0754 -0.159852,-0.15985 z m 25.135415,0 c 0.190996,-0.0764 0.4192,-0.067 0.507118,0.0209 0.08792,0.0879 -0.06835,0.15046 -0.347265,0.13897 -0.308225,-0.0127 -0.370919,-0.0754 -0.159853,-0.15985 z M 1.5537509,133.68072 c -0.3291074,-0.41964 -0.319749,-0.429 0.099895,-0.0999 0.2546615,0.19972 0.4630209,0.40808 0.4630209,0.46302 0,0.21776 -0.217272,0.0776 -0.5629157,-0.36313 z M 53.660804,133.963 c 0.190997,-0.0764 0.4192,-0.067 0.507118,0.0209 0.08792,0.0879 -0.06835,0.15045 -0.347265,0.13896 -0.308225,-0.0127 -0.370919,-0.0754 -0.159853,-0.15985 z m 13.61454,-10.32136 c 0.257431,-0.0671 0.614619,-0.0627 0.79375,0.01 0.179132,0.0725 -0.03149,0.12737 -0.468056,0.12197 -0.436562,-0.005 -0.583124,-0.0647 -0.325694,-0.13177 z m -4.767535,-0.26361 c 0.254662,-0.0665 0.67138,-0.0665 0.926042,0 0.254661,0.0666 0.0463,0.121 -0.463021,0.121 -0.509323,0 -0.717682,-0.0545 -0.463021,-0.121 z m 9.395793,-0.005 c 0.329118,-0.0633 0.805368,-0.0609 1.058333,0.005 0.252965,0.0662 -0.01631,0.118 -0.598397,0.11507 -0.582083,-0.003 -0.789055,-0.0571 -0.459936,-0.12041 z M 60.258851,123.1206 c 0.181901,-0.0734 0.479557,-0.0734 0.661458,0 0.181901,0.0734 0.03307,0.13345 -0.330729,0.13345 -0.363802,0 -0.51263,-0.0601 -0.330729,-0.13345 z m 14.287499,0 c 0.181901,-0.0734 0.479558,-0.0734 0.661459,0 0.181901,0.0734 0.03307,0.13345 -0.33073,0.13345 -0.363802,0 -0.51263,-0.0601 -0.330729,-0.13345 z m -16.139582,-0.26458 c 0.181901,-0.0734 0.479557,-0.0734 0.661458,0 0.181901,0.0734 0.03307,0.13345 -0.330729,0.13345 -0.363802,0 -0.51263,-0.0601 -0.330729,-0.13345 z m -1.30638,-0.2701 c 0.190996,-0.0764 0.419199,-0.067 0.507118,0.0209 0.08792,0.0879 -0.06835,0.15045 -0.347266,0.13896 -0.308224,-0.0127 -0.370919,-0.0754 -0.159852,-0.15985 z m 20.902082,0 c 0.190996,-0.0764 0.419199,-0.067 0.507118,0.0209 0.08792,0.0879 -0.06835,0.15045 -0.347266,0.13896 -0.308224,-0.0127 -0.370919,-0.0754 -0.159852,-0.15985 z m 34.31315,-4.05259 c 0.26339,-0.29104 0.53842,-0.52917 0.61118,-0.52917 0.0728,0 -0.0832,0.23813 -0.3466,0.52917 -0.26339,0.29104 -0.53842,0.52916 -0.61118,0.52916 -0.0728,0 0.0832,-0.23812 0.3466,-0.52916 z m 3.04271,-2.77813 c 0.49365,-0.50932 0.95708,-0.92604 1.02984,-0.92604 0.0728,0 -0.2716,0.41672 -0.76526,0.92604 -0.49365,0.50933 -0.95709,0.92604 -1.02985,0.92604 -0.0728,0 0.27161,-0.41671 0.76527,-0.92604 z m -79.173476,-0.584 c 0.329118,-0.0633 0.805368,-0.0609 1.058333,0.005 0.252965,0.0662 -0.01631,0.118 -0.598397,0.11506 -0.582084,-0.003 -0.789055,-0.0571 -0.459936,-0.1204 z m 82.216186,-2.72329 c 0.26338,-0.29104 0.53842,-0.52917 0.61118,-0.52917 0.0728,0 -0.0832,0.23813 -0.3466,0.52917 -0.26339,0.29104 -0.53842,0.52917 -0.61118,0.52917 -0.0728,0 0.0832,-0.23813 0.3466,-0.52917 z m -13.75834,-2.91042 c 0.26339,-0.29104 0.53842,-0.52916 0.61118,-0.52916 0.0728,0 -0.0832,0.23812 -0.34659,0.52916 -0.26339,0.29105 -0.53842,0.52917 -0.61118,0.52917 -0.0728,0 0.0832,-0.23812 0.34659,-0.52917 z m 4.7625,-4.7625 c 0.26339,-0.29104 0.53842,-0.52916 0.61118,-0.52916 0.0728,0 -0.0832,0.23812 -0.34659,0.52916 -0.26339,0.29105 -0.53842,0.52917 -0.61118,0.52917 -0.0728,0 0.0832,-0.23812 0.34659,-0.52917 z m -86.10098,-0.15434 c 0.0127,-0.30822 0.07539,-0.37091 0.159853,-0.15985 0.07643,0.191 0.06703,0.4192 -0.02089,0.50712 -0.08792,0.0879 -0.150453,-0.0684 -0.138965,-0.34727 z m 0.02089,-1.43316 c 0,-0.3638 0.06005,-0.51263 0.133453,-0.33072 0.0734,0.1819 0.0734,0.47955 0,0.66145 -0.0734,0.1819 -0.133453,0.0331 -0.133453,-0.33073 z m 88.32905,-1.15822 c 0,-0.0549 0.20836,-0.26331 0.46302,-0.46302 0.41965,-0.32911 0.429,-0.31975 0.0999,0.0999 -0.34565,0.44073 -0.56292,0.58089 -0.56292,0.36313 z M 84.997391,98.759682 c 0.691224,-0.0545 1.822318,-0.0545 2.513542,0 0.691224,0.0545 0.125677,0.0991 -1.256771,0.0991 -1.382448,0 -1.947995,-0.04459 -1.256771,-0.0991 z m -2.761588,-0.250844 c 0.190996,-0.07643 0.419199,-0.06703 0.507118,0.02089 0.08792,0.08792 -0.06835,0.150452 -0.347266,0.138964 -0.308224,-0.0127 -0.370919,-0.07539 -0.159852,-0.159852 z m 15.924609,-4.681654 c 0,-0.05494 0.208359,-0.263302 0.46302,-0.463021 0.419644,-0.329108 0.429003,-0.319749 0.0999,0.09989 -0.345643,0.440729 -0.562915,0.580887 -0.562915,0.363126 z m 3.250678,-7.176147 c 0.002,-0.727604 0.0534,-0.993858 0.11418,-0.591674 0.0608,0.402183 0.0592,0.997495 -0.004,1.322916 -0.0628,0.325421 -0.11256,-0.0036 -0.11057,-0.731242 z m -44.030259,-0.06615 c -0.329107,-0.419644 -0.319749,-0.429002 0.09989,-0.0999 0.440729,0.345644 0.580887,0.562916 0.363126,0.562916 -0.05494,0 -0.263301,-0.208359 -0.463021,-0.463021 z m -2.645833,-2.116666 c -0.329107,-0.419644 -0.319749,-0.429003 0.0999,-0.0999 0.440729,0.345644 0.580887,0.562916 0.363126,0.562916 -0.05494,0 -0.263302,-0.20836 -0.463021,-0.463021 z M 75.869267,83.69768 c 0.181901,-0.0734 0.479557,-0.0734 0.661458,0 0.181901,0.0734 0.03307,0.133452 -0.330729,0.133452 -0.363802,0 -0.51263,-0.06005 -0.330729,-0.133452 z M 52.896639,82.880721 52.255206,82.153117 52.98281,82.79455 c 0.680055,0.599516 0.848939,0.813775 0.641433,0.813775 -0.04739,0 -0.374816,-0.327422 -0.727604,-0.727604 z m -51.2882509,0.0441 c 0.012696,-0.308224 0.07539,-0.370919 0.1598524,-0.159852 0.07643,0.190996 0.067031,0.419199 -0.020888,0.507118 -0.087919,0.08792 -0.1504527,-0.06835 -0.1389644,-0.347266 z m 47.5840839,-3.48368 -0.641433,-0.727604 0.727604,0.641433 c 0.680056,0.599515 0.848939,0.813775 0.641433,0.813775 -0.04739,0 -0.374816,-0.327422 -0.727604,-0.727604 z m 73.065908,0.0441 c 0.0127,-0.308225 0.0754,-0.370919 0.15985,-0.159853 0.0764,0.190997 0.067,0.4192 -0.0209,0.507118 -0.0879,0.08792 -0.15046,-0.06835 -0.13897,-0.347265 z M 0.81463812,78.956072 c 0.0126957,-0.308224 0.0753905,-0.370919 0.15985242,-0.159852 0.0764304,0.190996 0.0670307,0.419199 -0.0208882,0.507118 -0.0879188,0.08792 -0.15045275,-0.06835 -0.13896422,-0.347266 z m 133.61457188,0 c 0.0127,-0.308224 0.0754,-0.370919 0.15986,-0.159852 0.0764,0.190996 0.067,0.419199 -0.0209,0.507118 -0.0879,0.08792 -0.15045,-0.06835 -0.13897,-0.347266 z m -11.90624,-0.79375 c 0.0127,-0.308224 0.0754,-0.370919 0.15985,-0.159852 0.0764,0.190996 0.067,0.419199 -0.0209,0.507118 -0.0879,0.08792 -0.15045,-0.06835 -0.13896,-0.347266 z M 0.57094295,77.258329 c 0,-0.363802 0.0600535,-0.51263 0.13345212,-0.330729 0.0733987,0.181901 0.0733987,0.479557 0,0.661458 -0.0733987,0.181901 -0.13345212,0.03307 -0.13345212,-0.330729 z M 134.6938,77.103989 c 0.0127,-0.308224 0.0754,-0.370919 0.15985,-0.159852 0.0764,0.190996 0.067,0.419199 -0.0209,0.507118 -0.0879,0.08792 -0.15045,-0.06835 -0.13896,-0.347266 z M 12.456304,76.839406 c 0.0127,-0.308225 0.07539,-0.37092 0.159853,-0.159853 0.07643,0.190996 0.06703,0.419199 -0.02089,0.507118 -0.08792,0.08792 -0.150452,-0.06835 -0.138963,-0.347265 z m 33.825752,-0.573264 -0.641433,-0.727604 0.727604,0.641433 c 0.680055,0.599516 0.848939,0.813775 0.641433,0.813775 -0.04739,0 -0.374816,-0.327422 -0.727604,-0.727604 z m 16.655025,0.264583 c -0.329107,-0.419644 -0.319749,-0.429002 0.0999,-0.0999 0.254661,0.19972 0.463021,0.408079 0.463021,0.463021 0,0.217761 -0.217272,0.0776 -0.562916,-0.363126 z m -1.702687,-1.455208 -0.777106,-0.859896 0.859896,0.777105 c 0.472943,0.427408 0.859896,0.814361 0.859896,0.859896 0,0.204407 -0.218315,0.02444 -0.942686,-0.777105 z M 0.3161635,75.009371 c 0.005392,-0.436562 0.0646903,-0.583125 0.1317736,-0.325694 0.0670834,0.257431 0.0626716,0.614619 -0.009804,0.79375 -0.0724755,0.179132 -0.12736187,-0.03149 -0.1219696,-0.468056 z m 87.2113055,0.480718 c 0.190996,-0.07643 0.4192,-0.06703 0.507118,0.02089 0.08792,0.08792 -0.06835,0.150453 -0.347265,0.138964 -0.308225,-0.0127 -0.370919,-0.07539 -0.159853,-0.159852 z m 47.461601,-0.480718 c 0.005,-0.436562 0.0647,-0.583125 0.13178,-0.325694 0.0671,0.257431 0.0627,0.614619 -0.01,0.79375 -0.0725,0.179132 -0.12736,-0.03149 -0.12197,-0.468056 z M 12.191721,74.987322 c 0.0127,-0.308224 0.07539,-0.370919 0.159852,-0.159852 0.07643,0.190996 0.06703,0.419199 -0.02089,0.507118 -0.08792,0.08792 -0.150453,-0.06835 -0.138964,-0.347266 z M 123.07302,74.877079 c 0,-0.363802 0.0601,-0.51263 0.13345,-0.330729 0.0734,0.181901 0.0734,0.479558 0,0.661459 -0.0734,0.181901 -0.13345,0.03307 -0.13345,-0.33073 z m -78.392188,-0.46302 c -0.329107,-0.419644 -0.319749,-0.429003 0.09989,-0.09989 0.254661,0.199719 0.463021,0.408078 0.463021,0.463021 0,0.217761 -0.217272,0.0776 -0.562916,-0.363126 z M 11.967633,72.49583 c 0,-0.509323 0.05445,-0.717683 0.121,-0.463021 0.06655,0.254661 0.06655,0.67138 0,0.926041 -0.06655,0.254662 -0.121,0.0463 -0.121,-0.46302 z M 123.36255,72.363538 c 0.003,-0.582083 0.0571,-0.789055 0.12041,-0.459936 0.0633,0.329118 0.0609,0.805368 -0.005,1.058333 -0.0662,0.252965 -0.11801,-0.01631 -0.11507,-0.598397 z M 0.07567457,71.834371 c 0.0019864,-0.727604 0.05336982,-0.993857 0.11418545,-0.591674 0.0608156,0.402183 0.0591904,0.997495 -0.003612,1.322916 -0.062802,0.325421 -0.11256024,-0.0036 -0.11057345,-0.731242 z m 135.20207543,0 c 0.002,-0.727604 0.0534,-0.993857 0.11419,-0.591674 0.0608,0.402183 0.0592,0.997495 -0.004,1.322916 -0.0628,0.325421 -0.11256,-0.0036 -0.11057,-0.731242 z m -77.218356,0.06615 -0.777105,-0.859896 0.859895,0.777106 c 0.472943,0.427408 0.859896,0.814361 0.859896,0.859895 0,0.204407 -0.218315,0.02444 -0.942686,-0.777105 z m -1.736896,-1.984375 c -0.329107,-0.419644 -0.319749,-0.429002 0.09989,-0.09989 0.254661,0.19972 0.463021,0.408079 0.463021,0.463021 0,0.217761 -0.217272,0.0776 -0.562916,-0.363126 z M 11.662554,67.843573 c 0.0127,-0.308225 0.07539,-0.370919 0.159853,-0.159853 0.07643,0.190996 0.06703,0.4192 -0.02089,0.507118 -0.08792,0.08792 -0.150452,-0.06835 -0.138963,-0.347265 z M 0.07567457,63.632288 c 0.0019864,-0.727604 0.05336982,-0.993857 0.11418545,-0.591674 0.0608156,0.402183 0.0591904,0.997495 -0.003612,1.322916 -0.062802,0.325421 -0.11256024,-0.0036 -0.11057345,-0.731242 z m 135.20207543,0 c 0.002,-0.727604 0.0534,-0.993857 0.11419,-0.591674 0.0608,0.402183 0.0592,0.997495 -0.004,1.322916 -0.0628,0.325421 -0.11256,-0.0036 -0.11057,-0.731242 z M 11.972973,63.103122 c 0.0029,-0.582084 0.05712,-0.789055 0.120406,-0.459936 0.06329,0.329118 0.06088,0.805368 -0.0053,1.058333 -0.06622,0.252965 -0.118003,-0.01631 -0.115066,-0.598397 z m 111.389577,0 c 0.003,-0.582084 0.0571,-0.789055 0.12041,-0.459936 0.0633,0.329118 0.0609,0.805368 -0.005,1.058333 -0.0662,0.252965 -0.11801,-0.01631 -0.11507,-0.598397 z M 51.900107,62.706247 c 0,-0.363802 0.06005,-0.51263 0.133452,-0.330729 0.0734,0.181901 0.0734,0.479557 0,0.661458 -0.0734,0.181901 -0.133452,0.03307 -0.133452,-0.330729 z M 0.3161635,60.457288 c 0.005392,-0.436562 0.0646903,-0.583124 0.1317736,-0.325693 0.0670834,0.257431 0.0626716,0.614618 -0.009804,0.79375 -0.0724755,0.179131 -0.12736187,-0.03149 -0.1219696,-0.468057 z M 12.212609,60.58958 c 0,-0.363802 0.06005,-0.51263 0.133452,-0.330729 0.0734,0.181901 0.0734,0.479557 0,0.661458 -0.0734,0.181901 -0.133452,0.03307 -0.133452,-0.330729 z m 110.860411,0 c 0,-0.363802 0.0601,-0.51263 0.13345,-0.330729 0.0734,0.181901 0.0734,0.479557 0,0.661458 -0.0734,0.181901 -0.13345,0.03307 -0.13345,-0.330729 z m 11.91605,-0.132292 c 0.005,-0.436562 0.0647,-0.583124 0.13178,-0.325693 0.0671,0.257431 0.0627,0.614618 -0.01,0.79375 -0.0725,0.179131 -0.12736,-0.03149 -0.12197,-0.468057 z m -82.336989,0.296981 c 0,-0.05494 0.208359,-0.263302 0.46302,-0.463021 0.419644,-0.329108 0.429003,-0.319749 0.09989,0.09989 -0.345643,0.440729 -0.562915,0.580887 -0.562915,0.363126 z m 1.322916,-1.5875 c 0,-0.05494 0.20836,-0.263302 0.463021,-0.463021 0.419644,-0.329108 0.429002,-0.319749 0.0999,0.0999 -0.345644,0.440729 -0.562916,0.580887 -0.562916,0.363126 z M 0.57094295,58.20833 c 0,-0.363802 0.0600535,-0.51263 0.13345212,-0.330729 0.0733987,0.181901 0.0733987,0.479557 0,0.661458 C 0.6309964,58.72096 0.57094295,58.572132 0.57094295,58.20833 Z M 134.6938,58.318573 c 0.0127,-0.308224 0.0754,-0.370919 0.15985,-0.159852 0.0764,0.190996 0.067,0.419199 -0.0209,0.507118 -0.0879,0.08792 -0.15045,-0.06835 -0.13896,-0.347266 z M 12.720887,57.26024 c 0.0127,-0.308224 0.07539,-0.370919 0.159853,-0.159852 0.07643,0.190996 0.06703,0.419199 -0.02089,0.507118 -0.08792,0.08792 -0.150453,-0.06835 -0.138965,-0.347266 z m 109.802083,0 c 0.0127,-0.308224 0.0754,-0.370919 0.15985,-0.159852 0.0764,0.190996 0.067,0.419199 -0.0209,0.507118 -0.0879,0.08792 -0.15045,-0.06835 -0.13896,-0.347266 z M 0.81463812,56.46649 c 0.0126957,-0.308224 0.0753905,-0.370919 0.15985242,-0.159852 0.0764304,0.190996 0.0670307,0.419199 -0.0208882,0.507118 -0.0879188,0.08792 -0.15045275,-0.06835 -0.13896422,-0.347266 z m 133.61457188,0 c 0.0127,-0.308224 0.0754,-0.370919 0.15986,-0.159852 0.0764,0.190996 0.067,0.419199 -0.0209,0.507118 -0.0879,0.08792 -0.15045,-0.06835 -0.13897,-0.347266 z M 34.945886,55.937323 c 0.0127,-0.308224 0.07539,-0.370919 0.159853,-0.159852 0.07643,0.190996 0.06703,0.419199 -0.02089,0.507118 -0.08792,0.08792 -0.150453,-0.06835 -0.138965,-0.347266 z M 34.702191,54.23958 c 0,-0.363802 0.06005,-0.51263 0.133452,-0.330729 0.0734,0.181901 0.0734,0.479558 0,0.661459 -0.0734,0.181901 -0.133452,0.03307 -0.133452,-0.33073 z m 22.258897,-1.455208 c 0.002,-0.727604 0.05337,-0.993857 0.114186,-0.591674 0.06081,0.402183 0.05919,0.997495 -0.0036,1.322916 -0.0628,0.325421 -0.11256,-0.0036 -0.110574,-0.731242 z M 1.6083881,52.49774 c 0.012696,-0.308224 0.07539,-0.370919 0.1598524,-0.159852 0.07643,0.190996 0.067031,0.419199 -0.020888,0.507118 -0.087919,0.08792 -0.1504527,-0.06835 -0.1389644,-0.347266 z M 56.641719,50.381074 c 0.0127,-0.308225 0.07539,-0.370919 0.159852,-0.159853 0.07643,0.190996 0.06703,0.4192 -0.02089,0.507118 -0.08792,0.08792 -0.150453,-0.06835 -0.138964,-0.347265 z M 34.702191,49.212497 c 0,-0.363802 0.06005,-0.51263 0.133452,-0.330729 0.0734,0.181901 0.0734,0.479558 0,0.661459 -0.0734,0.181901 -0.133452,0.03307 -0.133452,-0.33073 z m 3.794682,-8.202082 c 0.263389,-0.291042 0.53842,-0.529167 0.611181,-0.529167 0.07276,0 -0.08321,0.238125 -0.346598,0.529167 -0.263389,0.291041 -0.53842,0.529166 -0.611181,0.529166 -0.07276,0 0.08321,-0.238125 0.346598,-0.529166 z m 1.852083,-1.852084 c 0.263389,-0.291041 0.538421,-0.529166 0.611181,-0.529166 0.07276,0 -0.08321,0.238125 -0.346597,0.529166 -0.26339,0.291042 -0.538421,0.529167 -0.611181,0.529167 -0.07276,0 0.08321,-0.238125 0.346597,-0.529167 z m 4.299479,-2.291895 c 0.181901,-0.0734 0.479557,-0.0734 0.661458,0 0.181901,0.0734 0.03307,0.133452 -0.330729,0.133452 -0.363802,0 -0.51263,-0.06005 -0.330729,-0.133452 z m 1.86862,-0.0055 c 0.190996,-0.07643 0.419199,-0.06703 0.507118,0.02089 0.08792,0.08792 -0.06835,0.150453 -0.347266,0.138965 -0.308224,-0.0127 -0.370919,-0.07539 -0.159852,-0.159853 z M 25.664582,30.823957 c 0.341774,-0.363802 0.680939,-0.661459 0.753699,-0.661459 0.07276,0 -0.147341,0.297657 -0.489116,0.661459 -0.341774,0.363802 -0.680939,0.661458 -0.753699,0.661458 -0.07276,0 0.147342,-0.297656 0.489116,-0.661458 z m 83.839168,-0.06615 c -0.32911,-0.419644 -0.31975,-0.429002 0.0999,-0.0999 0.44073,0.345644 0.58089,0.562916 0.36313,0.562916 -0.0549,0 -0.26331,-0.20836 -0.46302,-0.463021 z m -4.88619,-4.894792 -0.50402,-0.595312 0.59531,0.504028 c 0.55945,0.473662 0.71576,0.686597 0.50403,0.686597 -0.0502,0 -0.3181,-0.267891 -0.59532,-0.595313 z M 30.823957,25.664582 c 0.263389,-0.291042 0.53842,-0.529167 0.611181,-0.529167 0.07276,0 -0.08321,0.238125 -0.346598,0.529167 -0.263389,0.291042 -0.53842,0.529167 -0.611181,0.529167 -0.07276,0 0.08321,-0.238125 0.346598,-0.529167 z M 14.816666,25.300104 c 0,-0.05494 0.208359,-0.263302 0.463021,-0.463021 0.419644,-0.329107 0.429002,-0.319749 0.0999,0.0999 -0.345644,0.440729 -0.562916,0.580887 -0.562916,0.363126 z m 103.823814,-2.082918 -0.50403,-0.595312 0.59531,0.504028 c 0.55945,0.473662 0.71577,0.686597 0.50403,0.686597 -0.0502,0 -0.31809,-0.267891 -0.59531,-0.595313 z M 16.801041,23.018749 c 0.263389,-0.291042 0.53842,-0.529167 0.611181,-0.529167 0.07276,0 -0.08321,0.238125 -0.346598,0.529167 -0.263389,0.291041 -0.53842,0.529166 -0.611181,0.529166 -0.07276,0 0.08321,-0.238125 0.346598,-0.529166 z m 98.677129,-3.241146 -1.04588,-1.124479 1.12447,1.045884 c 0.61847,0.575236 1.12448,1.081252 1.12448,1.124479 0,0.200178 -0.23041,-1.29e-4 -1.20307,-1.045884 z m -96.428171,0.777105 c 0,-0.04553 0.386953,-0.432487 0.859896,-0.859895 l 0.859896,-0.777106 -0.777106,0.859896 c -0.724371,0.801544 -0.942686,0.981512 -0.942686,0.777105 z m 3.96875,-3.753667 c 0.341774,-0.363802 0.680939,-0.661459 0.753699,-0.661459 0.07276,0 -0.147342,0.297657 -0.489116,0.661459 -0.341774,0.363802 -0.680939,0.661458 -0.753699,0.661458 -0.07276,0 0.147341,-0.297656 0.489116,-0.661458 z m 89.271731,0.06615 -0.50403,-0.595313 0.59531,0.504028 c 0.55945,0.473662 0.71577,0.686597 0.50403,0.686597 -0.0502,0 -0.31809,-0.267891 -0.59531,-0.595312 z m -1.99298,-1.719792 c -0.32911,-0.419644 -0.31975,-0.429002 0.0999,-0.0999 0.44073,0.345644 0.58089,0.562916 0.36313,0.562916 -0.055,0 -0.26331,-0.20836 -0.46302,-0.463021 z m -54.520029,-2.09897 c 0.190996,-0.07643 0.419199,-0.06703 0.507118,0.02089 0.08792,0.08792 -0.06835,0.150452 -0.347266,0.138964 -0.308224,-0.0127 -0.370919,-0.07539 -0.159852,-0.159854 z m 1.322917,-0.264583 c 0.190996,-0.07643 0.419199,-0.06703 0.507118,0.02089 0.08792,0.08792 -0.06835,0.150453 -0.347266,0.138964 -0.308224,-0.0127 -0.370919,-0.07539 -0.159852,-0.159852 z m 3.158463,-0.523654 c 0.181901,-0.0734 0.479557,-0.0734 0.661458,0 0.181901,0.0734 0.03307,0.133452 -0.330729,0.133452 -0.363802,0 -0.51263,-0.06005 -0.330729,-0.133452 z m 14.287499,0 c 0.181901,-0.0734 0.479558,-0.0734 0.661459,0 0.181901,0.0734 0.03307,0.133452 -0.33073,0.133452 -0.363802,0 -0.51263,-0.06005 -0.330729,-0.133452 z M 62.643186,11.983703 c 0.329118,-0.06329 0.805368,-0.06088 1.058333,0.0053 0.252965,0.06622 -0.01631,0.118003 -0.598397,0.115066 -0.582084,-0.0029 -0.789055,-0.05712 -0.459936,-0.120406 z m 9.260416,0 c 0.329118,-0.06329 0.805368,-0.06088 1.058333,0.0053 0.252965,0.06622 -0.01631,0.118003 -0.598397,0.115066 -0.582083,-0.0029 -0.789055,-0.05712 -0.459936,-0.120406 z m -4.501001,-0.252682 c 0.181901,-0.0734 0.479557,-0.0734 0.661458,0 0.181901,0.0734 0.03307,0.133452 -0.330729,0.133452 -0.363802,0 -0.51263,-0.06005 -0.330729,-0.133452 z M 51.279555,1.935926 c 0.190996,-0.07643 0.419199,-0.067031 0.507118,0.020888 0.08792,0.087919 -0.06835,0.1504528 -0.347266,0.1389643 -0.308224,-0.012696 -0.370919,-0.075391 -0.159852,-0.1598523 z m 1.058333,-0.2645833 c 0.190996,-0.07643 0.419199,-0.067031 0.507118,0.020888 0.08792,0.087919 -0.06835,0.1504528 -0.347266,0.1389643 -0.308224,-0.012696 -0.370919,-0.07539 -0.159852,-0.1598523 z m 30.427082,0 c 0.190996,-0.07643 0.419199,-0.067031 0.507118,0.020888 0.08792,0.087919 -0.06835,0.1504528 -0.347266,0.1389643 C 82.616598,1.818499 82.553903,1.755805 82.76497,1.6713427 Z M 54.983721,1.142176 c 0.190996,-0.07643 0.419199,-0.067031 0.507118,0.020888 0.08792,0.087919 -0.06835,0.1504527 -0.347266,0.1389642 -0.308224,-0.012696 -0.370919,-0.07539 -0.159852,-0.1598522 z m 1.322917,-0.2645833 c 0.190996,-0.0764303 0.419199,-0.0670307 0.507118,0.0208882 0.08792,0.0879188 -0.06835,0.1504527 -0.347266,0.1389642 -0.308224,-0.012696 -0.370919,-0.0753904 -0.159852,-0.1598524 z m 22.489582,0 c 0.190996,-0.0764303 0.419199,-0.0670307 0.507118,0.0208882 0.08792,0.0879188 -0.06835,0.1504527 -0.347266,0.1389642 C 78.647848,1.0247494 78.585153,0.96205467 78.79622,0.8775927 Z M 57.877601,0.61852153 c 0.181901,-0.0733987 0.479557,-0.0733987 0.661458,0 0.181901,0.0733987 0.03307,0.13345211 -0.330729,0.13345211 -0.363802,0 -0.51263,-0.0600534 -0.330729,-0.13345211 z m 19.049999,0 c 0.181901,-0.0733987 0.479557,-0.0733987 0.661458,0 0.181901,0.0733987 0.03307,0.13345211 -0.330729,0.13345211 -0.363802,0 -0.51263,-0.0600534 -0.330729,-0.13345211 z M 60.131595,0.34581285 c 0.257431,-0.0670833 0.614618,-0.0626716 0.79375,0.009804 0.179131,0.0724755 -0.03149,0.12736187 -0.468057,0.12196974 -0.436562,-0.005392 -0.583124,-0.0646903 -0.325693,-0.13177374 z m 14.552082,0 c 0.257431,-0.0670833 0.614619,-0.0626716 0.79375,0.009804 0.179132,0.0724755 -0.03149,0.12736187 -0.468056,0.12196974 -0.436562,-0.005392 -0.583125,-0.0646903 -0.325694,-0.13177374 z M 63.040614,0.0747233 c 0.402183,-0.06081564 0.997495,-0.05919043 1.322916,0.0036116 0.325421,0.062802 -0.0036,0.11256024 -0.731242,0.11057388 -0.727604,-0.001986 -0.993857,-0.0533698 -0.591674,-0.11418548 z m 8.202083,0 c 0.402183,-0.06081564 0.997495,-0.05919043 1.322916,0.0036116 0.325421,0.062802 -0.0036,0.11256024 -0.731242,0.11057388 -0.727604,-0.001986 -0.993857,-0.0533698 -0.591674,-0.11418548 z"
       id="path3" /><path
       style="fill:#38ad40"
       d="m 4.1163409,135.08342 c -0.5736686,-0.21071 -1.3475748,-0.60859 -1.7197916,-0.88416 -1.54956418,-1.14724 -2.57896772,-3.57101 -2.28839905,-5.38813 0.0870005,-0.54407 2.54191885,-6.23603 5.45537405,-12.6488 L 10.860716,104.50275 9.368693,101.96758 C 4.824741,94.246751 1.8920668,85.684007 0.62393273,76.434866 0.01344425,71.982266 0.01531907,63.471249 0.62777282,59.002276 2.2937927,46.845605 6.7355632,36.19767 14.257427,26.328894 16.647214,23.193463 22.246815,17.48025 25.399999,14.960245 47.309254,-2.5494955 77.633199,-4.7973716 101.76573,9.2993487 117.84188,18.690027 129.6639,34.778062 133.7324,52.801269 c 1.62079,7.179996 2.06462,16.67175 1.10649,23.663115 -2.05904,15.024458 -8.67063,28.372766 -19.33618,39.038326 -10.86186,10.86185 -24.512383,17.5094 -39.964172,19.4618 -3.375503,0.4265 -12.210381,0.43346 -15.478124,0.0122 -7.696271,-0.99221 -14.666162,-3.00125 -21.504468,-6.19856 l -2.851344,-1.33318 -5.218447,1.53092 c -14.926123,4.37882 -21.1730818,6.03547 -23.8755004,6.33162 -0.9710716,0.10642 -1.7964052,0.0323 -2.4943137,-0.22407 z M 74.347913,123.26861 C 93.138036,121.05779 109.85,109.10162 118.13433,91.942704 c 3.70697,-7.678052 5.44643,-15.409968 5.44643,-24.209374 0,-6.816754 -0.85464,-12.040527 -2.98684,-18.256249 C 115.84494,35.633019 105.30838,23.809142 91.942704,17.325376 80.661357,11.85273 67.361175,10.39976 54.901039,13.278783 40.704525,16.55901 27.89795,25.865443 19.963652,38.667496 c -3.888264,6.273744 -6.504897,13.623091 -7.65876,21.511188 -0.549271,3.754956 -0.55818,11.222847 -0.01795,15.04369 1.184996,8.380987 4.143978,16.262094 8.717937,23.219814 2.286605,3.478292 2.709838,4.817242 2.161709,6.838862 -0.180997,0.66755 -1.727451,4.28904 -3.436564,8.04775 -1.709113,3.75871 -3.041111,6.90039 -2.959994,6.98151 0.08112,0.0811 4.169402,-0.96414 9.085079,-2.32279 4.915677,-1.35865 9.625137,-2.51675 10.465467,-2.57356 1.465043,-0.099 1.70441,-0.0157 5.820833,2.0256 10.618408,5.26571 21.009772,7.14644 32.206501,5.82905 z M 80.697912,98.190941 C 67.045855,95.221573 50.299855,83.042419 41.233677,69.489099 37.771556,64.313464 35.846496,59.913424 35.0527,55.361463 c -0.74493,-4.271746 -0.329344,-7.463552 1.438965,-11.051614 1.268174,-2.573241 3.988204,-5.45644 6.206466,-6.578778 4.283681,-2.167345 8.673979,0.250877 11.761195,6.478189 2.429915,4.901451 3.035717,9.140733 1.698021,11.882404 -0.319507,0.654843 -1.354502,2.140677 -2.299988,3.301852 -2.07423,2.547411 -2.263599,3.180888 -1.426828,4.773029 1.99819,3.801997 7.040675,9.659902 10.928474,12.695716 3.776633,2.949009 8.872681,5.826206 11.954899,6.749661 1.610703,0.482579 2.236126,0.0088 4.560423,-3.454834 1.107816,-1.65084 2.472535,-3.365358 3.032709,-3.810039 0.955389,-0.758413 1.152124,-0.807075 3.175,-0.785325 3.389965,0.03645 7.509942,1.525353 10.884856,3.933642 4.248958,3.031992 5.436458,6.75534 3.454698,10.832074 -1.835789,3.776482 -4.339845,6.129656 -7.981669,7.500739 -1.594143,0.600168 -2.296476,0.695596 -5.656592,0.768584 -2.987086,0.06488 -4.334366,-0.02496 -6.085417,-0.405822 z"
       id="path1" /></g></svg>
